<svg id="layer" width="468.25" height="85" version="1.1" viewBox="0 0 468.25 85" xmlns="http://www.w3.org/2000/svg">
 <style type="text/css">.st0{fill:#ED6C00;}
	.st1{fill:#B5B2AF;}</style>
 <g stroke-width=".75088">
  <path d="m139.36 9.386c-0.15018 0.45053-4.7306 15.543-4.7306 15.543h-14.717l4.7306-15.543h-16.895s-12.765 41.674-12.99 42.5h16.895c0.15018-0.45053 5.4814-17.796 5.4814-17.796h14.717s-5.1811 17.045-5.4814 17.796h16.895c0.15018-0.45053 12.765-41.674 12.99-42.5z"/>
  <path d="m228.12 13.966-0.75088 0.60071 1.5769-5.1811h-16.895s-12.765 41.674-12.99 42.5h16.895c0.15018-0.45053 7.8843-25.605 7.8843-25.605 1.0512-3.5292 3.9046-5.932 6.9081-5.932h4.3551c1.3516 0 2.4028 0.45053 3.0786 1.3516 0.45053 0.6758 0.75089 1.5018 0.75089 2.4779 0 0.6758-0.15018 1.5018-0.37545 2.3277 0 0-6.758 22.226-7.8092 25.455h16.82c0.15018-0.45053 9.1608-29.96 9.1608-29.96 0.22527-0.82597 0.6758-2.4028 0.6758-4.1299 0-1.8021-0.37544-3.7544-1.652-5.4814-1.8772-2.553-5.1811-3.8295-9.8366-3.8295-9.0857-0.07509-15.018 3.379-17.796 5.4064"/>
  <path d="m161.29 12.39c0.15018 0.52562 2.4028 8.4099 2.6281 9.0106 1.5018-0.60071 7.8092-3.0786 13.291-3.0786 5.2562 0 8.1846 0.6758 9.311 2.1776 0.60071 0.75088 0.6758 1.727 0.30036 2.9284l-1.0512 3.4541-0.30035-0.07509c-7.1334-2.3277-12.54-2.2526-12.54-2.2526-5.6316 0-10.738 1.4267-14.642 4.0548-3.8295 2.553-6.5327 6.1572-7.8092 10.512-1.2014 3.8295-0.90106 7.0583 0.82597 9.386 2.0274 2.7032 5.932 4.1299 11.413 4.1299 5.1811 0 10.813-1.3516 15.844-3.7544l0.6758-0.30035s-0.82598 2.6281-0.97615 3.2288h16.745c0.15017-0.45053 9.0106-29.36 9.0106-29.36 0.37544-1.2014 0.52562-2.4028 0.52562-3.4541 0-1.8772-0.52562-3.5292-1.5769-4.8807-2.7032-3.6793-8.9355-5.6316-18.096-5.6316-11.188 0-21.701 3.3039-23.578 3.9046m13.366 20.95c1.2765 0 5.7067 0.07509 8.4099 1.3516l0.22527 0.15018-1.8772 6.1572-0.15018 0.07509c-2.7032 1.2765-6.4576 2.1025-9.4611 2.1025-2.8534 0-4.8056-0.6758-5.7818-1.8772-0.37544-0.52562-0.60071-1.1263-0.60071-1.8021 0-0.37544 0.0751-0.82597 0.22527-1.2765 1.0512-3.0786 4.3551-4.8807 9.0106-4.8807"/>
  <path d="m293.9 9.1608c-0.15018 0.15018-16.144 12.765-16.144 12.765l3.9046-12.765h-16.82s-12.915 42.35-13.216 43.101h16.895c0.15018-0.45053 5.3313-17.496 5.3313-17.496s12.089 17.27 12.314 17.496h18.021c-0.67579-0.97615-15.468-22.076-15.468-22.076l25.53-21.025z"/>
  <path d="m300.95 30.711c-1.8021 6.0071-1.1263 11.639 1.9523 15.769 3.5292 4.7306 9.7615 7.3587 17.721 7.3587 18.622 0 29.134-7.2085 34.09-23.352 1.8021-6.0071 1.1263-11.639-1.9523-15.769-3.5292-4.7306-9.7615-7.3587-17.721-7.3587-17.12 0-29.585 8.485-34.09 23.352m16.444 9.4611c-1.5018-2.0274-1.5018-5.106-0.15018-9.6113 1.652-5.4814 5.4814-11.939 14.117-11.939 3.3039 0 5.5565 0.82597 6.758 2.4779 1.5018 1.9523 1.5018 5.106 0.15018 9.6113-1.652 5.4814-5.4814 11.939-14.117 11.939-3.2288 0-5.4814-0.82597-6.758-2.4779"/>
  <path d="m357.2 30.711c-1.8021 6.0071-1.1263 11.639 1.9523 15.769 3.5292 4.7306 9.7615 7.3587 17.721 7.3587 18.622 0 29.134-7.2085 34.09-23.352 1.8021-6.0071 1.1263-11.639-1.9523-15.769-3.5292-4.7306-9.8366-7.3587-17.721-7.3587-17.12 0-29.585 8.485-34.09 23.352m30.486-12.164c3.3039 0 5.5565 0.82597 6.758 2.4779 1.5018 1.9523 1.5018 5.106 0.15017 9.6113-1.6519 5.4814-5.4814 11.939-14.117 11.939-3.3039 0-5.5565-0.82597-6.758-2.553-1.5018-2.0274-1.5018-5.106-0.15017-9.6113 1.6519-5.3313 5.4814-11.864 14.117-11.864"/>
  <path d="m449.1 8.7853c-0.15018 0.15018-16.369 13.891-16.369 13.891l4.205-13.891h-16.895s-13.14 43.026-13.441 43.777h16.895c0.15018-0.45053 5.4814-17.796 5.4814-17.796s13.065 17.571 13.216 17.796h18.472c-0.75088-0.97615-16.595-22.226-16.595-22.226s22.902-20.499 24.178-21.55z"/>
  <path class="st0" d="m99.792 2.1025-0.22526-2.1025h-14.267c1.6519 16.895-9.9867 35.742-26.581 40.247-0.07509 0-0.30035 0-0.30035-0.22526 0-0.07509 0-0.15018 0.07509-0.22526 13.816-9.2359 21.1-24.103 19.898-39.797h-13.966c0.60071 13.741-8.6352 26.281-22.752 31.387-0.07509 0-0.30035 0-0.30035-0.22526 0-0.07509 0.07509-0.15018 0.15018-0.22526 10.212-6.9832 16.369-17.42 15.994-30.936h-14.192c-0.15018 16.219-14.717 27.557-43.326 27.557 0.37544 0.22527 0.82597 0.45053 1.2014 0.6758 18.622 10.137 28.308 16.444 41.974 27.557 2.1025 1.8021 5.0309 2.7783 8.0345 2.7032 37.019-2.4779 50.309-34.991 48.582-56.391" fill="#ed6c00"/>
 </g>
 <g transform="scale(.75088)" fill="#b5b2af">
  <path class="st1" d="m246.8 80.4s-1.8 5.9-2.3 7.3c-2.3-1.4-5.1-2.1-8.8-2.1-8.4 0-15.1 4.2-17.1 10.6-0.9 2.8-0.6 5.2 0.7 7 1.7 2.3 5.1 3.5 9.7 3.5 3.6 0 6.9-0.7 10.2-2-0.1 0.3-0.5 1.7-0.5 1.7h6.6l8.6-27.9zm-21.5 20.6c-0.8-1-0.9-2.4-0.3-4.3 1.5-4.8 5-7.2 10.4-7.2 3.9 0 6.5 1.1 7.8 2.3-0.2 0.8-2.5 8.1-2.7 8.6-3.1 1.7-6.3 2.5-9.6 2.5-2.7-0.1-4.6-0.7-5.6-1.9"/>
  <path class="st1" d="m262.1 87.4c0-0.1 0.4-1.4 0.4-1.4h-6.7l-6.2 20.2h6.6l3.6-11.5c1-3.3 4.2-5.2 8.7-5.2 2.5 0 3.9 0.4 4.9 0.7l0.5 0.2 3.1-4-1.2-0.3c-1.3-0.3-3.1-0.5-5.6-0.5-2.8 0-5.8 0.7-8.1 1.8"/>
  <path class="st1" d="m278.5 81.3c-0.2 0.6-0.1 1.1 0.3 1.6 0.6 0.8 1.9 1.3 3.6 1.3 2 0 4.3-0.9 4.8-2.4 0.2-0.6 0-1.2-0.3-1.6-0.6-0.8-1.9-1.3-3.3-1.3-2.5 0-4.6 1-5.1 2.4m-0.3 4.7-6.3 20.2h6.7l6.2-20.2z"/>
  <path class="st1" d="m311.2 86s-13.6 14.7-13.7 14.9c-0.7-2.4-4.5-14.9-4.5-14.9h-7l7.4 20.2h5.3l19.9-20.2z"/>
  <path class="st1" d="m319.8 81.3c-0.2 0.6-0.1 1.1 0.3 1.6 0.6 0.8 1.9 1.3 3.6 1.3 2 0 4.3-0.9 4.8-2.4 0.2-0.6 0-1.2-0.3-1.7-0.6-0.8-1.9-1.3-3.3-1.3-2.6 0.1-4.7 1.1-5.1 2.5m-0.4 4.7-6.3 20.2h6.7l6.2-20.2z"/>
  <path class="st1" d="m336.7 87.5c0.1-0.2 0.5-1.5 0.5-1.5h-6.7l-6.2 20.2h6.6l3.5-11.5c1.1-3.4 4.7-5.3 9.9-5.3 3 0 4.9 0.5 5.6 1.5 0.5 0.7 0.6 1.8 0.1 3.3l-3.7 12h6.6l3.7-11.9c0.7-2.2 0.5-4.1-0.6-5.5-1.6-2.1-5-3.2-10.2-3.2-3.2 0-6.4 0.7-9.1 1.9"/>
  <path class="st1" d="m358.3 96.2c-0.4 1.3-0.6 2.5-0.5 3.5 0.1 1.3 0.5 2.5 1.2 3.5 1.7 2.3 5.1 3.5 9.7 3.5 3.6 0 6.9-0.7 10.2-2-1.3 3.3-4.2 4.8-15.5 5h-1.1l1.7 3.5h0.5c6.7-0.1 11.5-0.9 14.9-2.3 3.3-1.4 5.4-3.7 6.4-6.8l5.6-18h-6.7s-0.3 1.1-0.5 1.7c-2.3-1.4-5.1-2.1-8.8-2.1-8.4-0.1-15.1 4.1-17.1 10.5m6.7 4.8c-0.8-1-0.8-2.4-0.3-4.3 1.5-4.8 5-7.2 10.4-7.2 3.9 0 6.5 1.1 7.8 2.3-0.2 0.8-2.5 8.1-2.7 8.6-3.1 1.7-6.3 2.5-9.6 2.5-2.7-0.1-4.7-0.7-5.6-1.9"/>
  <path class="st1" d="m402.7 95.8c-0.3 1.2-0.5 2.2-0.5 3.3 0.1 1.3 0.5 2.5 1.3 3.5 2.8 3.6 8.8 4 11.2 4 5.4 0 8.8-0.7 13.6-2.2l1.1-0.3-2.9-3.2-0.5 0.1c-3.7 1.2-6.2 1.8-10.1 1.8-3 0-5.2-0.7-6.3-2-0.5-0.6-0.8-1.3-0.8-2.2v-0.8h23.4l0.2-0.3c0.3-0.4 0.5-0.9 0.7-1.6 0.3-1 0.5-2 0.4-2.9-0.1-1.3-0.5-2.4-1.2-3.4-1.9-2.5-5.8-3.9-11.3-3.9-9-0.1-16.4 4-18.3 10.1m17.6-6.4c3.1 0 5.3 0.7 6.3 1.9 0.4 0.5 0.7 1.2 0.7 1.9v0.8h-17.1c1.8-2.9 5.4-4.6 10.1-4.6"/>
  <path class="st1" d="m462.1 88.6c-1.3-1.5-3.8-2.9-8.9-2.9-3.2 0-6.1 0.6-8.4 1.8 0-0.1 0.4-1.4 0.4-1.4h-6.7l-6.2 20.2h6.6l3.5-11.4c1.1-3.5 4.1-5.4 9-5.4 2.6 0 4.3 0.5 5 1.4 0.5 0.7 0.6 1.9 0.1 3.5l-3.7 12h6.7l3.5-11.4c1.1-3.5 4.1-5.4 9-5.4 2.7 0 4.3 0.4 5 1.3 0.5 0.7 0.6 1.9 0.1 3.5l-3.7 12h6.7l3.7-11.9c0.7-2.3 0.5-4.3-0.6-5.7-1.5-2-4.7-3-9.5-3-5.9-0.2-9.2 1.3-11.6 2.8"/>
  <path class="st1" d="m492.5 88.2c-3.7 1.8-6.1 4.5-7.1 7.7-0.8 2.5-0.5 4.8 0.9 6.6 2 2.7 6.3 4.2 12.1 4.2 4.4 0 8.7-0.9 12.1-2.6 3.7-1.9 6.1-4.5 7.1-7.7 0.8-2.5 0.5-4.7-0.9-6.5-2-2.7-6.3-4.1-12.2-4.1-4.5-0.2-8.7 0.7-12 2.4m-0.2 12.4c-0.8-1-0.9-2.5-0.4-4.3 1.3-4.4 5.6-6.9 11.8-6.9 3.4 0 5.8 0.8 6.9 2.2 0.8 1 0.9 2.4 0.4 4.2-1.3 4.4-5.8 7-11.9 7-3.3 0-5.7-0.8-6.8-2.2"/>
  <path class="st1" d="m526.2 80.4s-1.5 4.8-1.7 5.7h-4.4l-1.1 3.8h4.3c-0.5 1.7-3.6 11.6-3.6 11.6-0.2 0.7-0.3 1.3-0.3 1.8 0 0.6 0.2 1.2 0.6 1.7 0.9 1.2 2.8 1.8 5.8 1.8 2.6 0 4.6-0.2 6.9-0.7l0.3-0.1 1.9-4-1.5 0.3c-1.6 0.3-2.9 0.5-5 0.5-1.8 0-2.1-0.3-2.2-0.4 0 0-0.1-0.2 0.1-0.9 0 0 2.9-9.4 3.6-11.7h8.7l1.1-3.8h-8.8c0.5-1.5 2.3-7.6 2.3-7.6z"/>
  <path class="st1" d="m543.4 81.3c-0.2 0.6-0.1 1.1 0.3 1.6 0.6 0.8 1.9 1.3 3.6 1.3 2 0 4.3-0.9 4.8-2.4 0.2-0.6 0-1.2-0.3-1.6-0.6-0.8-1.9-1.3-3.3-1.3-2.6 0-4.7 1-5.1 2.4m-0.4 4.7-6.3 20.2h6.7l6.2-20.2z"/>
  <path class="st1" d="m556.3 88.2c-3.7 1.8-6.1 4.5-7.1 7.7-0.8 2.5-0.5 4.8 0.9 6.6 2 2.7 6.3 4.2 12.1 4.2 4.4 0 8.7-0.9 12.1-2.6 3.7-1.9 6.1-4.5 7.1-7.7 0.8-2.5 0.5-4.8-0.9-6.5-2-2.7-6.3-4.1-12.2-4.1-4.4-0.2-8.6 0.7-12 2.4m11.3 1.2c3.4 0 5.8 0.8 6.9 2.2 0.8 1 0.9 2.4 0.4 4.2-1.3 4.4-5.8 7-11.9 7-3.3 0-5.7-0.8-6.8-2.2-0.4-0.6-0.7-1.2-0.7-2 0-0.7 0.1-1.4 0.3-2.3 1.3-4.3 5.6-6.9 11.8-6.9"/>
  <path class="st1" d="m593.1 87.5c0.1-0.2 0.5-1.5 0.5-1.5h-6.7l-6.2 20.2h6.6l3.5-11.5c1.5-4.8 7.4-5.3 9.9-5.3 3 0 4.9 0.5 5.6 1.5 0.5 0.7 0.6 1.8 0.1 3.3l-3.7 12h6.7l3.7-11.9c0.7-2.2 0.5-4.1-0.6-5.5-1.6-2.1-5-3.2-10.2-3.2-3.4 0-6.6 0.7-9.2 1.9"/>
 </g>
</svg>
