<svg id="layer" width="554.46" height="85" version="1.1" viewBox="0 0 554.46 85" xmlns="http://www.w3.org/2000/svg">
 <style type="text/css">.st0{fill:#004187;}
	.st1{fill:#E60012;}</style>
 <g transform="matrix(.73222 0 0 .73222 39.017 -189.51)">
  <g fill="#004187">
   <path class="st0" d="m631.4 284.8v-2h1.9c0.8 0 1.7 0.1 1.7 1 0 1.2-1.5 1-2.4 1h-1.2m2.3 0.7c1.1 0 2-0.5 2-1.8 0-1.1-0.6-1.7-2.3-1.7h-2.8v6.4h0.7v-2.9h1.5l1.8 2.9h0.9zm-0.9 5.5c3.2 0 5.8-2.6 5.8-5.9 0-3.2-2.6-5.8-5.8-5.8-3.3 0-5.9 2.6-5.9 5.8 0 3.3 2.7 5.9 5.9 5.9m0-0.7c-2.9 0-5.2-2.3-5.2-5.2 0-2.8 2.3-5.1 5.2-5.1 2.8 0 5.1 2.3 5.1 5.1 0 2.9-2.2 5.2-5.1 5.2"/>
   <path class="st0" d="m415.5 321.4c-2.8 10.7-5.7 12.3-13.6 12.3-8.1 0-9.7-0.7-6.7-12.3 2.4-9.4 3.4-12.4 13.1-12.4 10.2 0.1 9.6 3.2 7.2 12.4m11.3-41-6.7 24.1h-0.8c-1.5-6.1-7.7-7.3-14.8-7.3-16.1 0-23.8 5.8-27.6 20.2l-2.8 10.8c-3.3 12.6 3.5 17.4 17.7 17.4 8.4 0 15-1.6 19.1-8.8h0.4l-2.2 8.6h19.6l17.5-65.1h-19.4z"/>
   <polygon class="st0" points="480.1 345.4 493 297.3 512.8 297.3 500 345.4"/>
   <polygon class="st0" points="494.4 292.2 497.5 280.3 517.4 280.3 514.1 292.2"/>
   <path class="st0" d="m566.6 326.1c-2.3 8.8-5.5 13.7-10.7 16.3-5.2 2.7-12.4 3.2-22.8 3.2-22.8 0-26.7-5.5-21.9-24.2 4.2-16.1 10.4-24.3 34.4-24.3 16.9 0 28.1 1.4 23.7 18.3h-19.2c0.8-2.5 0.8-4.1-0.3-5.1s-3.3-1.4-7.3-1.4c-6.8 0-9.3 1.6-12.1 12.4-2.9 11.1-1.6 12.3 5.7 12.3 8.7 0 9.7-1.7 11.2-7.6h19.3"/>
   <path class="st0" d="m226.2 300.5c1.9-6.6-5.2-6.5-11.6-6.5-15.5 0-17 3.8-20 14.3l-2.9 10.6c-3.1 11.5 1.5 12.7 12.8 12.7 11 0 14.5-2 16.9-11h-15l3.2-12h37l-3.1 11.4c-5.9 21.9-13.9 25.9-42.8 25.9-25.5 0-37.5-3.5-31.8-24.5l4.5-16.8c5.8-21.5 21.4-24.7 45.1-24.7 20.9 0 35.8 0.1 29.7 20.7h-22"/>
   <path class="st0" d="m595.7 306.5h0.5c4.7-7.5 11.1-9.4 20.2-9.4 13 0 17.7 5 15 15.1l-8.8 33.1h-19.1l7.8-29.5c1.1-4.6 0.1-6.9-6.2-6.9-8.6 0-11.2 4.2-12.7 9.9l-7 26.5h-19l17.6-65.1h19.1l-7.4 26.3"/>
   <path class="st0" d="m287.6 321.4c-2.7 10.3-4.1 12.3-13.1 12.3-9.3 0-9.9-2-7.2-12.3 2.6-10.3 4.3-12.4 13.6-12.4 9 0.1 9.4 2.1 6.7 12.4m-3.9-24.2c-24.6 0-30.6 4.9-35.7 24.3-4.9 19-1 24.2 23.1 24.2 24.8 0 30.7-4.7 35.8-24.2 5.2-20.1 1.5-24.3-23.2-24.3"/>
   <path class="st0" d="m351.5 321.4c-2.7 10.3-4.1 12.3-13.1 12.3-9.3 0-9.9-2-7.3-12.3 2.7-10.3 4.4-12.4 13.6-12.4 9.1 0.1 9.5 2.1 6.8 12.4m-3.9-24.2c-24.5 0-30.6 4.9-35.7 24.3-4.9 19-1 24.2 23.1 24.2 24.4 0 30.7-4.7 35.8-24.2 5.2-20.1 1.5-24.3-23.2-24.3"/>
  </g>
  <path class="st1" d="m81.6 300.2c-1.4 5.2-3.5 6.2-11.1 6.2h-15.6l3.2-11.8h18.2c6 0.2 6.3 1.7 5.3 5.6m-5.3 24.4c-1.4 5.3-4.7 6.6-11.7 6.6h-16.3l3.4-12.7h16.8c6.9 0 9.2 0.8 7.8 6.1m6.6-44.2h-42.5l-17.6 65.1h43c17.2 0 27-2.2 31.3-18.1 2.2-8.2 1.7-14-10.1-14.6l0.2-0.7c11.1-1.4 14.6-6.7 16.8-15 3.9-14.2-5-16.7-21.1-16.7" fill="#e60012"/>
  <polygon class="st1" points="134.6 294.5 131.1 307.3 164.1 307.3 160.3 321.5 127.4 321.5 121 345.5 99.3 345.5 116.9 280.4 174.2 280.4 170.4 294.5" fill="#e60012"/>
  <g fill="#004187">
   <path class="st0" d="m462.6 317-7.5 28.5h-19.8l12.9-48h19.1l-2.1 7.8s5-7.8 17.5-7.8h5.8l-3.3 12.1h-13c-4.4 0.2-8 1.8-9.6 7.4"/>
   <polygon class="st0" points="562.2 359.8 18.9 359.8 15 374.4 558.2 374.4"/>
   <polygon class="st0" points="564.9 355.2 565.5 353.2 579.3 353.2 578.7 355.2 572.9 355.2 567.5 374.6 565.4 374.6 570.8 355.2"/>
   <path class="st0" d="m581.1 353.2h1.9l-0.7 2.5h-1.9zm-1.8 6.3h1.9l-4.2 15.1h-1.9z"/>
   <path class="st0" d="m584.9 359.5h1.9l-0.5 1.8h0.1c1.1-1.4 2.2-2.1 4.1-2.1 2.4 0 3.2 1 2.4 4.1l-0.3 1.2h-1.7c0.8-2.8 0.7-3.5-1.5-3.5-1.9 0-3.2 1-3.7 3.1l-2.9 10.5h-1.9l4-15.1"/>
   <path class="st0" d="m604.2 367.5 0.6-2.2c1.1-4.1 0.9-6-3.6-6-4.6 0-6 1.5-7.8 7.8-1.7 6.2-1.5 7.8 3.4 7.8 4.5 0 5.6-1.2 6.4-4.2l0.2-0.6h-1.9c-0.8 3-1.5 3-4.5 3-2.6 0-2.9-0.9-2-4.2l0.4-1.4h8.8m-8.3-1.9c0.9-3.2 1.4-4.6 4.7-4.6 3.4 0 3 1.4 2.1 4.6z"/>
   <path class="st0" d="m608.5 369.9c-0.8 2.6-0.5 3.2 2.3 3.2 3.1 0 3.7-0.4 4.4-3 0.6-2 0.4-2.2-3.1-2.3-3.7-0.2-4.6-0.8-3.7-4.1 0.9-3.2 1.8-4.4 6.3-4.4 4.4 0 5 1 4.1 4.2h-1.8c0.7-2.3 0.1-2.5-2.8-2.5-2.6 0-3.2 0.3-3.8 2.6-0.6 2.1-0.4 2.3 2.7 2.5 4.4 0.3 5 0.6 4.1 3.9-1 3.6-2 4.8-6.9 4.8-3.5 0-5-0.4-3.7-4.9h1.9"/>
  </g>
 </g>
</svg>
