<svg width="115.26mm" height="22.49mm" version="1.1" viewBox="0 0 115.26 22.49" xmlns="http://www.w3.org/2000/svg">
 <g transform="matrix(.40147 0 0 .40147 126.33 -27.161)">
  <g id="logo-usage" transform="matrix(.30095 0 0 .30095 -288.52 68.11)">
   <path d="m665.71 140.03h-631.6l-5.08 13.94h631.56z" fill="#fce500"/>
   <path d="m405.75 57c-16.35 3.35-38.5 15.36-38.27 37.28 0.14 12.64 15.41 19.66 32.92 19.17a141 141 0 0 0 20.36-2.27l6.5-16.88c-8.6 1.36-16.86 3.42-23.34 0.83-11.68-4.67-4.49-16.82 3.77-20.59a33 33 0 0 1 14.54-3.12c2.47 0 8.5 0.15 10.84 5.48l8.17-19.58c-14.06-3.5-28.17-1.85-35.49-0.32zm88.6-0.51-7.44 20.07h-13.58l7.39-20.07h-25.72l-20.46 55.73h25.66l7-18.87h13.61l-7 18.87h25.69l20.5-55.77zm-153.15 0-20.53 55.72h27l20.5-55.72zm-53.68 0-19.72 29.93s1.25-15.66 1.57-19.43c0.23-2.87-0.12-10.5-7.11-10.5h-31.26l-20.51 55.72h24.46l14.86-40.31-3.13 40.31h21.72l26.66-39.6-14.55 39.6h24.63l20.51-55.72zm476.23 0-14.07 38.21c0.19-3.85 1-19.06 1.43-27.83 0.19-3.61-0.59-6.36-2.31-8.19a7.45 7.45 0 0 0-4.91-2.23h-31.36l-20.53 55.73h22.8l14.54-39.47-1.72 39.47h38.18l20.52-55.73zm-94.29 0-20.46 55.68h27l20.5-55.72zm-114.13 14.51h30.79l5.42-14.6h-56.29l-20.51 55.73h56.91l5.53-15h-31.42l2.3-6.2h29.32l5-13.72h-29.29zm77.4-14.6h-26.26l-20.54 55.73h52.73l6.82-18.52h-26.48z" fill="#27509b"/>
   <path d="m5.16 36.7 0.06 0.14 0.42 1a117.5 117.5 0 0 0 5.6 11.86 37 37 0 0 0 4.11 6.07 21.62 21.62 0 0 0-3.24 7.15 21.89 21.89 0 0 0 1 11.69 25.37 25.37 0 0 0 2.21 4.81 2.21 2.21 0 0 0-0.09 0.4 22.74 22.74 0 0 0 9.26 21.18 25.07 25.07 0 0 0 3.41 2.15 17.61 17.61 0 0 0 6 8.27 24.09 24.09 0 0 0 6.75 3.72v0.07a20.45 20.45 0 0 0 11.52 7.79c1.233 0.345 2.49 0.6 3.76 0.76a2 2 0 0 0 0.19 0.22 21.54 21.54 0 0 0 9.07 5.08 23.32 23.32 0 0 0 1 11h133.67a24.007 24.007 0 0 0-3.53-12.71 2.14 2.14 0 0 0-0.21-0.28c1.793-13.313-7.082-25.723-20.26-28.33-0.67-0.13-1.37-0.24-2.06-0.32h-0.28a55.52 55.52 0 0 0-16.521-11.1c0.08-0.36 0.15-0.71 0.23-1l0.27-0.09c7.23-3.23 11.5-8.53 12.5-15.5a22.9 22.9 0 0 0-4-15.86 2.07 2.07 0 0 0 0-0.22c0.74-7.44-0.38-13.94-3.33-19.3a23.05 23.05 0 0 0-10.27-9.82h-0.06c-1.18-4-6.28-7-11.73-6.9-4.3 0.12-9 2.13-10.75 5.43-6.54 2.36-16.69 8.45-19.76 23.86a20.49 20.49 0 0 0-2.8 30.58 97.72 97.72 0 0 0-18.84 2l-0.24 0.06a25.76 25.76 0 0 0-21-4.12 2.15 2.15 0 0 0-0.76 0.37 38 38 0 0 0-6.44-1.31 2.12 2.12 0 0 0-0.43 0 21.07 21.07 0 0 0-5.19-8.71c-0.12-0.12-0.4-0.34-0.4-0.36a50.56 50.56 0 0 0-1.33-6 17.73 17.73 0 0 0-4.89-8.1 19.28 19.28 0 0 0-5.56-3.85 14 14 0 0 0 0.56-1.86 4.2 4.2 0 0 0 0.08-0.47c0-0.07 0.78-7.52 1.67-11.94v-0.16c2.47-15.19 2.47-15.41 2.52-15.58v-0.09a4.89 4.89 0 0 0-1.33-3.73 6.59 6.59 0 0 0-4.87-2 7.76 7.76 0 0 0-6.64 3.8 20.71 20.71 0 0 0-2 4.55c-2.52-4.88-5.82-11.31-8.19-16l-0.13-0.24a6.31 6.31 0 0 0-5.33-3 6.65 6.65 0 0 0-2.34 0.43 6.25 6.25 0 0 0-4.1-1.51 7.16 7.16 0 0 0-2.28 0.39 6.16 6.16 0 0 0-4.21 6.12 6 6 0 0 0-3.91 4.56 7.85 7.85 0 0 0 0.16 3.32c0 0.09 0.05 0.23 0.12 0.44l-0.19 0.28c-1.49 2.34-2.26 6.65 3.35 20.88"/>
   <g fill="#fff">
    <path d="m195.57 140h-5.29a25.75 25.75 0 0 0 4.12-6.81 19.49 19.49 0 0 1 1.16 6.81m-87.05-57.2a13.53 13.53 0 0 1 3.12 0.59c2 0.75 5.88 4.5 8 4.83 0.37 0 1.34-0.19 0.29-0.94-0.29-0.21-2.74-2.39-1.83-3.52a1.1 1.1 0 0 1 1.2-0.46c3.07 0.76 5.63 1.2 6.51 1.33 0.54 0.08 0.93 0.09 1.15-0.1s0.06-0.32-0.54-0.49c-4.74-1.27-10-3.31-13.62-6.06a17 17 0 0 1-6.76-15.62 16.39 16.39 0 0 1 6.37-10.93 18.44 18.44 0 0 1 4.31-2c1.72-0.62-1.1-1.07-1.3-1.11-0.72-0.12-0.76-0.86-0.17-3.12a25.31 25.31 0 0 1 16.56-17.22 31.89 31.89 0 0 1 3.77-0.95c1.66-0.25 1-1-0.86-1.22 0 0-0.64 0-0.33-0.45a4.57 4.57 0 0 1 0.95-0.83 11 11 0 0 1 5.45-1.58c3.87-0.1 7.21 2.06 7.6 4.05 0 0 0.14 0.4-0.33 0.42-0.74 0-1.34 0.34-0.32 0.85 0.24 0.12 1.27 0.43 2.72 1.1l0.21 0.11c2.92 1.36 12 6.88 11.34 22.5 0 0.47-0.06 0.94-0.09 1.4s-0.09 0.86-0.14 1.29c-0.85-0.1-1.23 0.26-0.62 0.88a18.66 18.66 0 0 1 2.17 2.79 19.06 19.06 0 0 1 2.52 12 14.76 14.76 0 0 1-7.63 11 36.56 36.56 0 0 1-9.58 3.65c-0.91 0.21-0.48 1.39 3.74 1.33 0.36 0 1.13 0.08 1.35 0.5 0.49 0.91-0.35 2.69-2.19 3.77-1.58 0.93-0.32 1.13 1.88 0.47a7.76 7.76 0 0 1 2.55 0.67 50.18 50.18 0 0 1 19.33 15.34c4.68 6.72 6.38 12 4.91 15.33s-5.65 3.82-5.68 3.82h-0.07c-16.34 2.54-44.69-1.94-64.24-7.7a116.59 116.59 0 0 1-13.12-4.81 27.41 27.41 0 0 0-4.44-29.15l-0.29-0.31a92.63 92.63 0 0 1 16.11-1.32"/>
    <path d="m188.49 111.9c5.953 8.879 4.33 20.805-3.78 27.77 0.1-3.87-0.58-8.38-3.43-12a9.74 9.74 0 0 0 2.89-3.68c2.16-4.84 0.37-11.43-5.32-19.6v-0.05l-0.37-0.48a21 21 0 0 1 10.05 8m-99.06-24.58c6.53 7.36 7.63 18.56 2.61 26.64-5.62 9.06-15.7 13.54-25.08 11.15a19.85 19.85 0 0 1-3.83-1.4 23.52 23.52 0 0 0 2.64-0.55c9.23-2.5 16.12-11 17.15-21.19a24.54 24.54 0 0 0-5-17.65 21.18 21.18 0 0 0-4.65-4.33 22 22 0 0 1 16.15 7.33"/>
    <path d="m74.61 87a20.21 20.21 0 0 1 4.07 14.54c-0.85 8.41-6.48 15.43-14 17.47a20.54 20.54 0 0 1-16.58-2.53 22.89 22.89 0 0 0 20.9-15.72 21.7 21.7 0 0 0-0.28-14.1 20.72 20.72 0 0 0-3.2-5.68 18.06 18.06 0 0 1 9 6"/>
    <path d="m60.26 87.22a25.46 25.46 0 0 0 0.44-5.21 17 17 0 0 1 4.3 17.44c-2.8 8.71-12.08 14.24-20.68 12.32a18.86 18.86 0 0 1-10.43-6.41 22.36 22.36 0 0 0 4.72 0.51 22 22 0 0 0 8.81-1.84 22.66 22.66 0 0 0 12.89-16.81"/>
    <path d="m53.83 72.88a19.27 19.27 0 0 1 2.17 13.53 17.86 17.86 0 0 1-29 11.19 18.83 18.83 0 0 1-7.66-13.14c0.44 0.39 0.9 0.75 1.37 1.09a20.31 20.31 0 0 0 12 3.72 21.64 21.64 0 0 0 5.69-0.72c7.86-2.22 11.71-6.94 13.56-10.51a20.61 20.61 0 0 0 1.84-5.13"/>
    <path d="m5.48 18 0.17-0.12a1.41 1.41 0 0 1 0.52-0.3h0.76a2 2 0 0 1 0.4 0.1c1.24 0.45 2.15 2 2.44 4.21a25.27 25.27 0 0 0 3.9 10.6 0.93521 0.93521 0 1 0 1.52-1.09 23.69 23.69 0 0 1-3.56-9.76c-0.39-2.93-1.72-5-3.65-5.72a3.74 3.74 0 0 0-1.41-0.23 10.81 10.81 0 0 1-0.57-1.55c-0.19-0.8-0.55-2.39 1.23-3l0.34-0.1h0.18c1.29-0.16 3 0.43 4.67 6.46a46.29 46.29 0 0 0 5.25 11.17 0.93 0.93 0 0 0 1.56-1 45.17 45.17 0 0 1-5-10.65c-0.73-2.6-1.76-5.43-3.51-6.88-0.25-0.64-0.53-1.35-0.6-1.58-0.3-0.89-0.61-2.87 1.09-3.43a3 3 0 0 1 0.94-0.17 2.71 2.71 0 0 1 2.37 2c0 0.12 0.11 0.25 0.17 0.39l7.67 18.32a0.71 0.71 0 0 0 0.24 0.33 0.86 0.86 0 0 0 1.36-1l-7.47-17.76a1.64 1.64 0 0 1 0.85-0.88 2.71 2.71 0 0 1 1.22-0.36 2.07 2.07 0 0 1 1.69 0.94s9.91 19.48 11.75 22.84a19 19 0 0 0-1.45 2.82c-0.13 0.5 0.2 0.95 0.44 0.48a28.9 28.9 0 0 1 2-2.57 0.28 0.28 0 0 0 0.07-0.11c0.47-0.83 1.92-4.7 2.5-5.92a20.61 20.61 0 0 1 2.15-5.73 3.58 3.58 0 0 1 3.06-1.81c1.12 0 2 0.57 2 1.15 0 0.26-2.43 15.29-2.43 15.29-0.63 3.14-1.19 7.64-1.5 10.25a12.67 12.67 0 0 1-0.21 1.89v0.2s0 0.14-0.09 0.37a19.58 19.58 0 0 1-1.4 4l0.78 3.58c0.31 1.51 0.65 3.13 0.78 3.62 0.57 2-0.16 3.22 0.21 3.63 0.52 0.57 1.78-2.14 2.11-3.54a14.74 14.74 0 0 0-0.53-5 15 15 0 0 1 4.22 2.95 13.47 13.47 0 0 1 3.82 6.28 37.26 37.26 0 0 1 1.47 7.19c0.05 1.93-0.61 12.18-12.73 15.59a17.18 17.18 0 0 1-4.5 0.56 16 16 0 0 1-9.5-2.95c-5.86-4.17-8.15-13.28-7-18.1a17.24 17.24 0 0 1 2.31-5.29c0.54 0.332 1.118 0.6 1.72 0.8l0.35 1.66c0 0.2 1 4.83 2.78 6.24a5.89 5.89 0 0 0 3.29 0.89c0.53 0 1.8-0.06 2-0.61a0.5 0.5 0 0 0-0.14-0.56 2.49 2.49 0 0 0-0.56-0.35c-0.86-0.47-2.47-1.33-2.81-2.91-0.19-0.89-0.93-4-1.36-5.85 1.8-1.43 2-3-0.36-2.51a4.6 4.6 0 0 1-3.75-1.17c-4.74-4.13-9.66-16.84-10.65-19.09-4-10.2-4.86-15.67-3.61-17.2m63.94 111.91a25.13 25.13 0 0 0 2.67 0.15c8.82 0 17.42-4.65 22.89-12.67a118 118 0 0 0 14.02 5.17 230 230 0 0 0 34.65 7.2 158.68 158.68 0 0 0 19.83 1.4 76.86 76.86 0 0 0 11.61-0.78 12.92 12.92 0 0 0 2.25-0.55c2.65 2.79 3.17 6.83 3 10.25h-109.49a17.62 17.62 0 0 1-1.42-10.18"/>
   </g>
   <path d="m127.83 62.2c-0.1-0.37-0.57-0.37-0.73-0.37a4.14 4.14 0 0 0-1.36 0.28 3.08 3.08 0 0 0-1.92 2.53 0.44 0.44 0 0 0 0.13 0.31 0.53 0.53 0 0 0 0.4 0.16 0.36 0.36 0 0 0 0.35-0.36 1.52 1.52 0 0 1 0.43-0.87 3.82 3.82 0 0 1 2.17-1c0.25-0.06 0.6-0.25 0.5-0.62"/>
   <path d="m144.92 71.06a9.78 9.78 0 0 1-3.73 0.34 10.54 10.54 0 0 1-3.59-0.91 11.59 11.59 0 0 1-3.24-2.42 40.63 40.63 0 0 0 13.77 1.19 10.08 10.08 0 0 1-3.21 1.8m9.75-6c-0.46-0.05-0.58 0.34-0.4 0.49 0.067 0.057 0.127 0.12 0.18 0.19l-0.45 0.26a15.58 15.58 0 0 1-3.26 1.08 28 28 0 0 1-8.39 0.45 44.42 44.42 0 0 1-13.45-3.19l-1.13-0.5c-0.19-0.08-0.37-0.2-0.56-0.27a0.93 0.93 0 0 0-1.24 0.82 1 1 0 0 0 0.67 1 27.84 27.84 0 0 0 3.58 1.47 9.13 9.13 0 0 1 2.62 2.23 14.87 14.87 0 0 0 3.23 2.62 12.28 12.28 0 0 0 7.78 1.37 10.11 10.11 0 0 0 3.79-1.41 24.06 24.06 0 0 0 2.37-1.78 11.82 11.82 0 0 1 1.44-1c0.3-0.17 2.4-1 3.51-1.65 0 0.39 0 0.73 0.24 0.78s0.55-0.49 0.65-0.94a2 2 0 0 0-0.11-1.17 1.52 1.52 0 0 0-1.05-0.76m-25.41-15.74c0.16-1.74 1.17-7.2 5.53-6.76 3.32 0.33 4.21 2.78 4.46 4.92v0.29a10 10 0 0 1-0.71 4.94 9.39 9.39 0 0 1-0.77 1.53 3.91 3.91 0 0 1-2.65 2.1h-0.25a6.42 6.42 0 0 0 2.85-5.15c0.29-3.22-1.24-6-3.43-6.18a3.41 3.41 0 0 0-2.82 1.33 1.95 1.95 0 0 1 0.11 3.75 1.54 1.54 0 0 1-1.44-1.25 8.66 8.66 0 0 0-0.32 1.66 7 7 0 0 0 1.24 4.9 2.88 2.88 0 0 1-0.36-0.36 7.37 7.37 0 0 1-1.38-3.63 10.61 10.61 0 0 1-0.07-2.11m0.51 6.49a4.15 4.15 0 0 0 1.8 1.27 7 7 0 0 0 1.91 0.39 16 16 0 0 0 1.72 0.08c2.68-0.11 5.21-4.23 5.29-8.26 0.08-3.67-0.41-6.49-3.06-8.14a4.79 4.79 0 0 0-0.87-0.42 6 6 0 0 0-3.59-0.16 5.39 5.39 0 0 0-3.16 2.58 13.38 13.38 0 0 0-1.49 4.07 12.52 12.52 0 0 0-0.19 4.37 8.6 8.6 0 0 0 1.65 4.23m26.51-2.89a10.76 10.76 0 0 1-0.6 2 7.39 7.39 0 0 1-2.2 3.13 2.81 2.81 0 0 1-1.22 0.5 6.59 6.59 0 0 0 2.68-5.08c0.29-3.22-1.2-6-3.33-6.17a3.33 3.33 0 0 0-2.77 1.34 1.69 1.69 0 0 1 1.44 1.79 1.72 1.72 0 0 1-1.34 2 1.5 1.5 0 0 1-1.41-1.24 8.64 8.64 0 0 0-0.31 1.66 6.79 6.79 0 0 0 1.46 5.21 4.38 4.38 0 0 1-1.6-2.52 9 9 0 0 1-0.33-1.66 10.12 10.12 0 0 1 0.58-4.92l0.09-0.28c0.77-2 2.22-4.11 5.41-3.6 4.19 0.68 3.75 6.16 3.46 7.87m1.05-6.06a5.31 5.31 0 0 0-2.3-3.27 5.73 5.73 0 0 0-3.41-0.75 4.76 4.76 0 0 0-0.91 0.19c-2.9 0.92-4.06 3.49-4.92 7-0.94 3.88 0.38 8.46 2.85 9.24a14.5 14.5 0 0 0 1.63 0.35 6.57 6.57 0 0 0 1.88 0.11 4 4 0 0 0 2-0.76 8.62 8.62 0 0 0 2.61-3.65 12.66 12.66 0 0 0 0.92-4.23 13.52 13.52 0 0 0-0.36-4.27"/>
  </g>
 </g>
</svg>
