<svg width="406.66" height="85" enable-background="new 0 0 563 123.5" version="1.1" viewBox="0 0 406.66 85" xmlns="http://www.w3.org/2000/svg">
 <g transform="matrix(.82354 0 0 .82354 36.762 -22.975)">
  <polygon transform="matrix(.72921 0 0 .72921 1.0647 32.215)" points="72.804 90.07 102.8 2.405 34.184 2.405 3.932 90.07" fill="#e03626"/>
  <polygon transform="matrix(.72921 0 0 .72921 1.0647 32.215)" points="531.61 90.07 561.6 2.405 492.98 2.405 462.74 90.07" fill="#e03626"/>
  <path d="m118.08 39.883h-13.517s-13.236 38.3-14.551 41.68c-1.314 3.3799-2.2525 5.5376-5.2569 5.5376-2.4407 0-3.0984-1.7807-1.5022-6.1939 1.5962-4.4125 14.645-41.212 14.645-41.212h-13.894s-10.512 31.575-14.269 42.337c-3.4732 9.9508 3.0044 13.894 11.828 13.894s16.334-1.0333 21.966-15.49c5.6324-14.457 14.551-40.553 14.551-40.553z" stroke-width=".72921"/>
  <polygon transform="matrix(.72921 0 0 .72921 1.0647 32.215)" points="141.42 86.081 156.22 86.081 177.21 24.032 170 85.952 193.17 85.952 219.3 10.386 204.88 10.386 186.22 64.195 193.04 10.256 167.68 10.256"/>
  <polygon transform="matrix(.72921 0 0 .72921 1.0647 32.215)" points="219.43 85.952 245.18 10.514 227.16 10.514 201.15 85.952"/>
  <path d="m207.45 70.392c0 4.2243-3.8481 12.579-5.1636 16.427-1.314 3.8481 0.65775 8.0738 0.65775 8.0738h-13.611s-1.5962-4.4132 0.0933-8.9175c1.6896-4.5043 2.7222-7.605 4.2243-11.923s-4.8814-3.9429-4.8814-3.9429l-8.4487 24.689h-13.517l19.057-55.104h16.803c9.2946 0 12.862 2.4407 12.862 8.2613 0 4.788-4.6013 16.803-14.551 16.991 1e-3 0 6.4769-0.28148 6.4769 5.445zm-11.827-22.061-4.8814 13.612c6.8524 0.09407 8.542-2.6288 10.326-10.232 1.4096-4.3191-5.4443-3.3799-5.4443-3.3799z" stroke-width=".72921"/>
  <path d="m250.92 54.151c-3.6614 11.546-4.2243 12.579-8.5435 24.688-4.3184 12.109-10.983 16.992-21.779 16.992s-15.865-4.6947-11.922-15.677c3.9429-10.983 5.8198-16.052 8.2613-23.75 2.4407-7.6976 7.5094-17.836 22.905-17.836 8.6375-7.29e-4 14.738 4.0362 11.078 15.583zm-19.902-1.5022s-8.4487 24.033-10.232 29.382c-1.7844 5.351 4.411 6.4761 6.8517-0.37627 2.4421-6.8524 8.2613-23.281 9.9508-28.726 1.6903-5.4436-4.5051-6.3828-6.5709-0.28002z" stroke-width=".72921"/>
  <polygon transform="matrix(.72921 0 0 .72921 1.0647 32.215)" points="364.52 58.402 396.83 10.514 378.8 10.514 362.07 39.993 365.54 10.384 347.27 10.384 346.75 58.66 336.71 86.08 355.12 86.08"/>
  <path d="m300.29 94.799h-12.295l3.5658-13.8h-6.5695l-6.7605 13.8h-12.297l28.726-54.916h17.084zm-2.2525-43.84-10.232 21.967h5.445z" stroke-width=".72921"/>
  <polygon transform="matrix(.72921 0 0 .72921 1.0647 32.215)" points="437.51 74.107 459.78 10.384 441.37 10.384 415.24 85.823 453.47 85.823 457.72 74.107"/>
  <g transform="matrix(.72921 0 0 .72921 1.0647 32.215)">
   <path d="m467.59 21.524c-0.765-0.308-1.415-0.732-1.957-1.273-0.571-0.562-1.016-1.213-1.336-1.955-0.328-0.731-0.491-1.516-0.491-2.354 0-0.848 0.164-1.638 0.491-2.369 0.32-0.742 0.771-1.388 1.352-1.94 0.562-0.529 1.215-0.948 1.958-1.256 0.719-0.287 1.493-0.428 2.32-0.428 0.836 0 1.622 0.148 2.354 0.445 0.709 0.286 1.355 0.705 1.938 1.255 0.54 0.531 0.98 1.172 1.32 1.924 0.317 0.742 0.477 1.533 0.477 2.369 0 1.155-0.276 2.184-0.826 3.085-0.551 0.902-1.301 1.617-2.241 2.146-0.944 0.53-1.953 0.796-3.022 0.796-0.838 0-1.618-0.15-2.337-0.445zm-1.909-3.022c0.436 0.784 1.029 1.39 1.781 1.813 0.752 0.435 1.574 0.652 2.464 0.652 0.891 0 1.712-0.217 2.464-0.652s1.347-1.044 1.781-1.828c0.425-0.774 0.637-1.623 0.637-2.545 0-0.667-0.123-1.319-0.365-1.956-0.243-0.594-0.589-1.128-1.034-1.605-0.436-0.456-0.959-0.812-1.574-1.066-0.604-0.253-1.241-0.381-1.909-0.381-0.658 0-1.287 0.122-1.891 0.366-0.606 0.254-1.136 0.61-1.591 1.065s-0.807 0.992-1.05 1.606c-0.128 0.339-0.217 0.652-0.271 0.938-0.062 0.329-0.095 0.674-0.095 1.034 1e-3 0.921 0.218 1.775 0.653 2.559zm2.973 0.907h-1.05v-6.917h2.672c0.806 0 1.409 0.153 1.812 0.462 0.404 0.317 0.604 0.816 0.604 1.494 0 0.583-0.159 1.034-0.477 1.351-0.33 0.297-0.757 0.487-1.287 0.573l1.955 3.037h-1.191l-1.83-3.005h-1.208zm1.272-3.88c0.509 0 0.924-0.074 1.241-0.223 0.297-0.138 0.445-0.445 0.445-0.922 0-0.678-0.51-1.017-1.527-1.017h-1.431v2.162z"/>
   <g stroke="#000" stroke-width=".25">
    <path d="m94.664 106.22-0.729 3.925h5.212l-0.303 1.639h-5.212l-1.265 6.824h-2.125l2.652-14.123h9.22l-0.313 1.735z"/>
    <path d="m104.2 113.42c0-2.479 0.695-4.631 2.084-6.453 1.391-1.822 3.194-2.732 5.416-2.732 1.707 0 3.006 0.444 3.901 1.33 0.894 0.889 1.341 2.162 1.341 3.828 0 2.743-0.704 5.004-2.11 6.786-1.407 1.778-3.354 2.669-5.844 2.669-1.492 0-2.663-0.502-3.512-1.507-0.851-1.006-1.276-2.314-1.276-3.921zm2.156-0.27c0 1.222 0.255 2.187 0.764 2.897 0.509 0.708 1.24 1.063 2.191 1.063 1.68 0 3.014-0.741 4.002-2.227 0.989-1.484 1.483-3.25 1.483-5.292 0-2.423-1.093-3.633-3.279-3.633-1.511 0-2.75 0.786-3.714 2.356-0.965 1.576-1.447 3.187-1.447 4.836z"/>
    <path d="m130.02 118.6-2.328-6.062c-0.519 0-1.232-0.033-2.135-0.097l-1.133 6.158h-2.125l2.611-14.121c0.276-6e-3 0.821-0.031 1.634-0.078 0.814-0.043 1.479-0.065 1.999-0.065 1.566 0 2.772 0.267 3.62 0.802 0.846 0.531 1.269 1.297 1.269 2.293 0 1.176-0.366 2.205-1.098 3.088-0.732 0.886-1.652 1.445-2.758 1.685l2.763 6.399h-2.319zm-3.309-12.388-0.851 4.591c0.499 0.062 0.969 0.094 1.407 0.094 1.2 0 2.167-0.237 2.899-0.713 0.732-0.475 1.098-1.127 1.098-1.955 0-0.766-0.256-1.309-0.769-1.631-0.513-0.319-1.369-0.48-2.57-0.48-0.257 0-0.661 0.03-1.214 0.094z"/>
    <path d="m153.08 106.22-0.729 3.925h4.899l-0.303 1.639h-4.899l-0.941 5.089h6.721l-0.324 1.735h-8.846l2.622-14.123h8.956l-0.334 1.735z"/>
    <path d="m168.71 118.8h-1.022l-2.875-14.312h2.226l1.883 10.304 5.505-10.304h2.297z"/>
    <path d="m185.06 106.22-0.729 3.925h4.898l-0.303 1.639h-4.898l-0.942 5.089h6.721l-0.324 1.735h-8.846l2.622-14.123h8.956l-0.334 1.735z"/>
    <path d="m204.26 118.6-2.327-6.062c-0.52 0-1.232-0.033-2.135-0.097l-1.133 6.158h-2.125l2.611-14.121c0.276-6e-3 0.821-0.031 1.634-0.078 0.814-0.043 1.479-0.065 1.999-0.065 1.566 0 2.772 0.267 3.619 0.802 0.846 0.531 1.27 1.297 1.27 2.293 0 1.176-0.366 2.205-1.098 3.088-0.732 0.886-1.652 1.445-2.759 1.685l2.764 6.399h-2.32zm-3.309-12.388-0.851 4.591c0.499 0.062 0.969 0.094 1.407 0.094 1.2 0 2.167-0.237 2.899-0.713 0.731-0.475 1.098-1.127 1.098-1.955 0-0.766-0.256-1.309-0.769-1.631-0.513-0.319-1.369-0.48-2.57-0.48-0.257 0-0.661 0.03-1.214 0.094z"/>
    <path d="m219.11 112.28-1.173 6.324h-2.025l1.175-6.324-3.36-7.799h2.115l2.521 6.025 4.666-6.025h2.286z"/>
    <path d="m235.4 106.22-2.287 12.388h-2.075l2.288-12.388h-4.716l0.324-1.735h11.669l-0.324 1.735z"/>
    <path d="m252.03 118.6 1.266-6.824h-6.478l-1.264 6.824h-2.085l2.622-14.121h2.084l-1.052 5.66h6.477l1.053-5.66h2.065l-2.622 14.121z"/>
    <path d="m261.67 118.6 2.621-14.121h2.065l-2.621 14.121z"/>
    <path d="m281.8 118.8-5.789-10.021-1.74 9.83h-2.024l2.622-14.121h0.809l5.667 9.621 1.711-9.621h2.004l-2.651 14.312z"/>
    <path d="m301.94 105.05-0.608 1.841c-0.864-0.609-1.801-0.916-2.813-0.916-1.814 0-3.302 0.67-4.461 2.006-1.162 1.336-1.742 3.02-1.742 5.052 0 2.717 1.347 4.075 4.039 4.075 1.08 0 2.011-0.308 2.793-0.926l0.617-3.307h-2.055l0.305-1.638h4.078l-1.144 6.147c-1.397 0.973-3.175 1.456-5.334 1.456-3.638 0-5.455-1.812-5.455-5.435 0-2.708 0.806-4.911 2.419-6.615 1.611-1.702 3.72-2.554 6.325-2.554 1.456 3e-3 2.469 0.274 3.036 0.814z"/>
    <path d="m323.6 112.28-1.172 6.324h-2.025l1.175-6.324-3.36-7.799h2.115l2.521 6.025 4.666-6.025h2.285z"/>
    <path d="m332.67 113.42c0-2.479 0.694-4.631 2.085-6.453 1.389-1.822 3.193-2.732 5.414-2.732 1.707 0 3.007 0.444 3.902 1.33 0.893 0.889 1.341 2.162 1.341 3.828 0 2.743-0.704 5.004-2.111 6.786-1.407 1.778-3.354 2.669-5.844 2.669-1.492 0-2.661-0.502-3.513-1.507-0.849-1.006-1.274-2.314-1.274-3.921zm2.155-0.27c0 1.222 0.256 2.187 0.765 2.897 0.509 0.708 1.241 1.063 2.19 1.063 1.681 0 3.014-0.741 4.004-2.227 0.988-1.484 1.48-3.25 1.48-5.292 0-2.423-1.092-3.633-3.277-3.633-1.512 0-2.75 0.786-3.715 2.356-0.962 1.576-1.447 3.187-1.447 4.836z"/>
    <path d="m352.91 104.48h2.124l-1.822 9.67c-0.041 0.213-0.061 0.414-0.061 0.606 0 0.728 0.231 1.3 0.692 1.72 0.464 0.422 1.093 0.633 1.888 0.633 0.985 0 1.801-0.268 2.449-0.803 0.647-0.531 1.061-1.267 1.236-2.205l1.812-9.621h2.084l-1.821 9.824c-0.263 1.424-0.938 2.541-2.019 3.338-1.085 0.801-2.432 1.2-4.046 1.2-1.368 0-2.452-0.317-3.248-0.954-0.795-0.635-1.194-1.475-1.194-2.516 0-0.341 0.033-0.701 0.103-1.08z"/>
    <path d="m382.06 118.8h-1.023l-2.874-14.312h2.228l1.883 10.304 5.506-10.304h2.295z"/>
    <path d="m401.7 118.6-0.467-2.979h-5.312l-1.753 2.979h-2.268l8.675-14.313h0.538l2.935 14.313zm-1.589-10.43-3.391 6.033h4.301z"/>
    <path d="m410.3 118.6 2.623-14.121h2.065l-2.299 12.387h6.699l-0.321 1.734z"/>
    <path d="m426.95 104.48h2.124l-1.822 9.67c-0.041 0.213-0.062 0.414-0.062 0.606 0 0.728 0.232 1.3 0.692 1.72 0.463 0.422 1.093 0.633 1.889 0.633 0.984 0 1.802-0.268 2.448-0.803 0.647-0.531 1.06-1.267 1.236-2.205l1.812-9.621h2.085l-1.821 9.824c-0.265 1.424-0.938 2.541-2.02 3.338-1.085 0.801-2.431 1.2-4.045 1.2-1.369 0-2.451-0.317-3.247-0.954-0.796-0.635-1.194-1.475-1.194-2.516 0-0.341 0.032-0.701 0.102-1.08z"/>
    <path d="m446.98 106.22-0.728 3.925h4.897l-0.305 1.639h-4.896l-0.942 5.089h6.72l-0.322 1.735h-8.847l2.62-14.123h8.958l-0.335 1.735z"/>
   </g>
   <path d="m460.14 104.89h-1.302v3.621h-0.757v-3.621h-1.305v-0.625h3.364zm3.109 2.503 1.18-3.128h1.139v4.245h-0.738v-3.447l-1.344 3.447h-0.522l-1.333-3.447v3.447h-0.75v-4.245h1.148z"/>
  </g>
 </g>
</svg>
